<svg xmlns="http://www.w3.org/2000/svg" width="960" height="720" fill="none" aria-label="Confused robot looking at a broken 404 monitor" role="img" viewBox="0 0 960 720"><defs><linearGradient id="bg" x1="0" x2="960" y1="0" y2="720" gradientUnits="userSpaceOnUse"><stop stop-color="#EDF7F3"/><stop offset="1" stop-color="#DCEBE5"/></linearGradient><linearGradient id="screen" x1="200" x2="760" y1="120" y2="500" gradientUnits="userSpaceOnUse"><stop stop-color="#2D3533"/><stop offset="1" stop-color="#1E2523"/></linearGradient></defs><rect width="960" height="720" fill="url(#bg)" rx="36"/><ellipse cx="480" cy="620" fill="#B9D1C7" fill-opacity=".55" rx="290" ry="44"/><rect width="500" height="360" x="230" y="90" fill="#F6FCFA" stroke="#8FB4A6" stroke-width="8" rx="26"/><rect width="432" height="250" x="264" y="124" fill="url(#screen)" rx="16"/><rect width="120" height="38" x="420" y="450" fill="#8FB4A6" rx="14"/><rect width="260" height="22" x="350" y="488" fill="#7AA695" rx="10"/><text x="300" y="194" fill="#7AD7F0" font-family="'IBM Plex Mono', monospace" font-size="42" font-weight="700">ERROR 404</text><text x="300" y="244" fill="#D7EFE7" font-family="'IBM Plex Mono', monospace" font-size="22">page.exe stopped responding</text><text x="300" y="284" fill="#9CC9BA" font-family="'IBM Plex Mono', monospace" font-size="20">reason: caffeine dependency missing</text><text x="300" y="324" fill="#9CC9BA" font-family="'IBM Plex Mono', monospace" font-size="20">attempting dramatic recovery...</text><circle cx="256" cy="126" r="8" fill="#FF8DA1"/><circle cx="280" cy="126" r="8" fill="#FFE55C"/><circle cx="304" cy="126" r="8" fill="#7AD7F0"/><g transform="translate(315 504)"><rect width="330" height="150" x="0" y="0" fill="#7AA695" rx="38"/><rect width="294" height="118" x="18" y="16" fill="#D6EAE3" rx="30"/><circle cx="96" cy="74" r="31" fill="#2E4942"/><circle cx="234" cy="74" r="31" fill="#2E4942"/><circle cx="96" cy="74" r="15" fill="#9EF0D7"/><circle cx="234" cy="74" r="15" fill="#9EF0D7"/><path stroke="#2E4942" stroke-linecap="round" stroke-width="10" d="M105 108C132 127 198 127 225 108"/><rect width="30" height="50" x="150" y="42" fill="#2E4942" rx="14"/><circle cx="165" cy="26" r="12" fill="#FF8DA1"/></g><path stroke="#7AA695" stroke-linecap="round" stroke-width="8" d="M176 176L124 132"/><path stroke="#7AA695" stroke-linecap="round" stroke-width="8" d="M152 246L86 246"/><path stroke="#7AA695" stroke-linecap="round" stroke-width="8" d="M782 168L836 130"/><path stroke="#7AA695" stroke-linecap="round" stroke-width="8" d="M808 246L874 246"/></svg>